<?xml version="1.0" encoding="utf-8"?>
<!-- Generator: Adobe Illustrator 22.0.0, SVG Export Plug-In . SVG Version: 6.00 Build 0)  -->
<svg version="1.1" id="Layer_1" xmlns="http://www.w3.org/2000/svg" xmlns:xlink="http://www.w3.org/1999/xlink" x="0px" y="0px"
	 viewBox="0 0 512 512" style="enable-background:new 0 0 512 512;" xml:space="preserve">
<style type="text/css">
	.st0{fill:#3C78D8;}
	.st1{fill:#FFFFFF;}
</style>
<path class="st0" d="M462,511.6H50c-27.6,0-50-22.4-50-50v-412c0-27.6,22.4-50,50-50h412c27.6,0,50,22.4,50,50v412
	C512,489.3,489.6,511.6,462,511.6z"/>
<g>
	<path class="st1" d="M252.5,310c1.5,3.9,3,7.8,4.5,11.7c1.5-4.1,3-8,4.6-11.7c1.6-3.7,3.4-7.5,5.5-11.2L373,106.4
		c1.9-3.3,3.9-5.4,5.9-6.1c2-0.7,4.9-1.1,8.7-1.1h31.2v313h-37.1v-230c0-3.1,0.1-6.3,0.2-9.8c0.1-3.5,0.4-7.1,0.7-10.7L275.3,357.3
		c-3.6,6.6-8.7,9.8-15.3,9.8h-6.1c-6.6,0-11.7-3.3-15.3-9.8L129,161c0.4,3.8,0.8,7.5,1,11.1c0.2,3.6,0.3,7,0.3,10v230H93.2v-313
		h31.2c3.8,0,6.7,0.4,8.7,1.1c2,0.7,4,2.8,5.9,6.1L247.2,299C249.2,302.5,251,306.2,252.5,310z"/>
</g>
</svg>
